<svg width="520" height="520" viewBox="0 0 520 520" fill="none" xmlns="http://www.w3.org/2000/svg">
<path d="M143.089 408.067C219.863 475.579 315.435 500.876 387.642 477.473C412.154 469.15 425.223 442.692 416.83 418.385C416.076 416.195 415.156 414.068 414.08 412.011L381.858 349.424C375.924 337.913 378.149 323.925 387.359 314.776C396.821 305.393 411.392 303.343 423.117 309.734L439.337 318.586C454.528 326.925 473.657 321.478 482.066 306.414C485.65 299.993 486.836 292.518 485.414 285.318C473.964 232.341 448.643 183.291 412.004 143.102L379.782 111.15C279.771 23.7814 148.268 7.85296 77.947 77.5858C9.45716 145.502 22.9345 270.979 105.045 369.103L143.089 408.067Z" stroke="#2c2c2c" stroke-width="15"/>
<path d="M320.706 136.103C320.706 150.795 308.795 162.706 294.103 162.706C279.411 162.706 267.5 150.795 267.5 136.103C267.5 121.411 279.411 109.5 294.103 109.5C308.795 109.5 320.706 121.411 320.706 136.103Z" stroke="#2c2c2c" stroke-width="15"/>
<path d="M189.706 102.103C189.706 116.795 177.795 128.706 163.103 128.706C148.411 128.706 136.5 116.795 136.5 102.103C136.5 87.4106 148.411 75.5 163.103 75.5C177.795 75.5 189.706 87.4106 189.706 102.103Z" stroke="#2c2c2c" stroke-width="15"/>
<path d="M121.706 192.103C121.706 206.795 109.795 218.706 95.103 218.706C80.4106 218.706 68.5 206.795 68.5 192.103C68.5 177.411 80.4106 165.5 95.103 165.5C109.795 165.5 121.706 177.411 121.706 192.103Z" stroke="#2c2c2c" stroke-width="15"/>
<path d="M168.706 307.103C168.706 321.795 156.795 333.706 142.103 333.706C127.411 333.706 115.5 321.795 115.5 307.103C115.5 292.411 127.411 280.5 142.103 280.5C156.795 280.5 168.706 292.411 168.706 307.103Z" stroke="#2c2c2c" stroke-width="15"/>
<path d="M286.706 401.103C286.706 415.795 274.795 427.706 260.103 427.706C245.411 427.706 233.5 415.795 233.5 401.103C233.5 386.411 245.411 374.5 260.103 374.5C274.795 374.5 286.706 386.411 286.706 401.103Z" stroke="#2c2c2c" stroke-width="15"/>
<path d="M425.18 225.84C425.18 238.178 415.178 248.18 402.84 248.18C390.502 248.18 380.5 238.178 380.5 225.84C380.5 213.502 390.502 203.5 402.84 203.5C415.178 203.5 425.18 213.502 425.18 225.84Z" stroke="#2c2c2c" stroke-width="15"/>
</svg>
