<svg width="520" height="520" viewBox="0 0 520 520" fill="none" xmlns="http://www.w3.org/2000/svg">
<rect width="520" height="520" fill="white"/>
<circle cx="260" cy="267" r="66.5" stroke="black" stroke-width="15"/>
<path d="M448.696 219.826H413.372C410.409 210.155 406.532 200.815 401.824 191.918L426.779 166.963C432.119 161.623 435.062 154.509 435.062 146.933C435.062 139.366 432.119 132.252 426.779 126.912L400.078 100.212C389.408 89.5412 370.727 89.5129 360.037 100.212L335.082 125.167C326.194 120.459 316.845 116.591 307.174 113.619V78.3043C307.174 62.6992 294.475 50 278.87 50H241.13C225.525 50 212.826 62.6992 212.826 78.3043V113.628C203.155 116.6 193.815 120.468 184.918 125.176L159.954 100.221C148.915 89.1827 130.951 89.1827 119.912 100.221L93.2025 126.922C82.1732 137.96 82.1732 155.924 93.2025 166.963L118.157 191.927C113.45 200.815 109.581 210.165 106.609 219.836H71.3043C55.6992 219.836 43 232.535 43 248.14V285.879C43 301.475 55.6992 314.174 71.3043 314.174H106.628C109.6 323.845 113.468 333.185 118.176 342.082L93.2213 367.046C82.1827 378.085 82.1827 396.049 93.2213 407.088L119.922 433.798C130.96 444.827 148.924 444.827 159.963 433.798L184.927 408.843C193.815 413.55 203.165 417.419 212.836 420.391V455.696C212.836 471.301 225.535 484 241.14 484H278.879C294.484 484 307.183 471.301 307.183 455.696V420.372C316.854 417.4 326.204 413.532 335.091 408.824L360.046 433.788C370.745 444.478 389.426 444.459 400.088 433.788L426.788 407.088C432.128 401.748 435.072 394.634 435.072 387.067C435.072 379.491 432.128 372.387 426.788 367.046L401.833 342.082C406.541 333.194 410.409 323.845 413.381 314.174H448.696C464.301 314.174 477 301.475 477 285.87V248.13C477 232.525 464.301 219.826 448.696 219.826Z" stroke="black" stroke-width="15" stroke-linejoin="round"/>
</svg>
